{
	"asset":{
		"generator":"Khronos glTF Blender I/O v3.6.27",
		"version":"2.0"
	},
	"scene":0,
	"scenes":[
		{
			"name":"Scene",
			"nodes":[
				0
			]
		}
	],
	"nodes":[
		{
			"mesh":0,
			"name":"hands"
		}
	],
	"materials":[
		{
			"doubleSided":true,
			"name":"lambert1.004",
			"pbrMetallicRoughness":{
				"baseColorFactor":[
					0.5,
					0.5,
					0.5,
					1
				],
				"metallicFactor":0,
				"roughnessFactor":0.5527864098548889
			}
		}
	],
	"meshes":[
		{
			"name":"Mesh.004",
			"primitives":[
				{
					"attributes":{
						"POSITION":0,
						"NORMAL":1,
						"TEXCOORD_0":2
					},
					"indices":3,
					"material":0
				}
			]
		}
	],
	"accessors":[
		{
			"bufferView":0,
			"componentType":5126,
			"count":2210,
			"max":[
				0.13353624939918518,
				0.05968380719423294,
				0.16810251772403717
			],
			"min":[
				-0.1335362195968628,
				-0.057025667279958725,
				-0.043902937322854996
			],
			"type":"VEC3"
		},
		{
			"bufferView":1,
			"componentType":5126,
			"count":2210,
			"type":"VEC3"
		},
		{
			"bufferView":2,
			"componentType":5126,
			"count":2210,
			"type":"VEC2"
		},
		{
			"bufferView":3,
			"componentType":5123,
			"count":11442,
			"type":"SCALAR"
		}
	],
	"bufferViews":[
		{
			"buffer":0,
			"byteLength":26520,
			"byteOffset":0,
			"target":34962
		},
		{
			"buffer":0,
			"byteLength":26520,
			"byteOffset":26520,
			"target":34962
		},
		{
			"buffer":0,
			"byteLength":17680,
			"byteOffset":53040,
			"target":34962
		},
		{
			"buffer":0,
			"byteLength":22884,
			"byteOffset":70720,
			"target":34963
		}
	],
	"buffers":[
		{
			"byteLength":93604,
			"uri":"hands.bin"
		}
	]
}
