{
    "asset": {
        "copyright": "(C)2024 nekromantikko",
        "generator": "maya2glTF v1.5.2 fc60fee",
        "version": "2.0"
    },
    "scenes": [
        {
            "nodes": [
                21,
                0
            ]
        }
    ],
    "scene": 0,
    "nodes": [
        {
            "name": "jnt_root",
            "children": [
                11,
                1
            ],
            "rotation": [
                0.0,
                1.0,
                0.0,
                0.0
            ]
        },
        {
            "name": "jnt_L_hand:SSC",
            "children": [
                2
            ],
            "translation": [
                0.09083890169858933,
                0.002683670027181506,
                -0.09260790050029756
            ]
        },
        {
            "name": "jnt_L_hand",
            "children": [
                3
            ],
            "rotation": [
                0.7128007411956787,
                -0.13287416100502018,
                -0.6770028471946716,
                0.12620103359222413
            ]
        },
        {
            "name": "jnt_L_thumb0:SSC",
            "children": [
                4
            ],
            "translation": [
                -0.03983914852142334,
                1.6999999630229469e-8,
                -9.999999717180686e-10
            ]
        },
        {
            "name": "jnt_L_thumb0",
            "children": [
                5
            ],
            "rotation": [
                0.1692609190940857,
                0.31544482707977297,
                -0.12505128979682926,
                0.9253147840499878
            ]
        },
        {
            "name": "jnt_L_thumb1:SSC",
            "children": [
                6
            ],
            "translation": [
                -0.04159114882349968,
                -2.9000000623113924e-8,
                2.2000000043931327e-8
            ]
        },
        {
            "name": "jnt_L_thumb1",
            "children": [
                7
            ],
            "rotation": [
                9.99999993922529e-9,
                -9.999999717180686e-10,
                -0.12311696261167526,
                0.9923921823501588
            ]
        },
        {
            "name": "jnt_L_thumb2:SSC",
            "children": [
                8
            ],
            "translation": [
                -0.03156716376543045,
                3.6999999508680058e-8,
                -1.59999995474891e-8
            ]
        },
        {
            "name": "jnt_L_thumb2",
            "children": [
                9
            ],
            "rotation": [
                0.0,
                0.0,
                -0.10709270089864732,
                0.9942490458488464
            ]
        },
        {
            "name": "jnt_L_thumb3:SSC",
            "children": [
                10
            ],
            "translation": [
                -0.026479773223400117,
                2.700000045763318e-8,
                3.999999886872274e-9
            ]
        },
        {
            "name": "jnt_L_thumb3",
            "rotation": [
                9.999999717180686e-10,
                -1.2000000104706033e-8,
                -0.9981412291526794,
                0.06094291806221008
            ]
        },
        {
            "name": "jnt_R_hand:SSC",
            "children": [
                12
            ],
            "translation": [
                -0.09083886444568634,
                0.0026836670003831388,
                -0.09260789304971697
            ]
        },
        {
            "name": "jnt_R_hand",
            "children": [
                13
            ],
            "rotation": [
                -0.12620103359222413,
                -0.6770028471946716,
                0.13287416100502018,
                0.7128007411956787
            ]
        },
        {
            "name": "jnt_R_thumb0:SSC",
            "children": [
                14
            ],
            "translation": [
                0.03983917459845543,
                0.0,
                0.0
            ]
        },
        {
            "name": "jnt_R_thumb0",
            "children": [
                15
            ],
            "rotation": [
                0.1692609190940857,
                0.31544482707977297,
                -0.12505128979682926,
                0.9253147840499878
            ]
        },
        {
            "name": "jnt_R_thumb1:SSC",
            "children": [
                16
            ],
            "translation": [
                0.041591040790081027,
                9.999999717180686e-10,
                -1.999999943436137e-9
            ]
        },
        {
            "name": "jnt_R_thumb1",
            "children": [
                17
            ],
            "rotation": [
                0.0,
                0.0,
                -0.12311696261167526,
                0.9923921823501588
            ]
        },
        {
            "name": "jnt_R_thumb2:SSC",
            "children": [
                18
            ],
            "translation": [
                0.03156722709536553,
                0.0,
                -9.999999717180686e-10
            ]
        },
        {
            "name": "jnt_R_thumb2",
            "children": [
                19
            ],
            "rotation": [
                0.0,
                0.0,
                -0.10709270089864732,
                0.9942490458488464
            ]
        },
        {
            "name": "jnt_R_thumb3:SSC",
            "children": [
                20
            ],
            "translation": [
                0.026479782536625867,
                0.0,
                9.999999717180686e-10
            ]
        },
        {
            "name": "jnt_R_thumb3",
            "rotation": [
                0.0,
                0.0,
                -0.9981412291526794,
                0.06094291806221008
            ]
        },
        {
            "name": "hands",
            "mesh": 0,
            "skin": 0
        }
    ],
    "meshes": [
        {
            "name": "handsShape",
            "extras": {
                "targetNames": []
            },
            "primitives": [
                {
                    "attributes": {
                        "JOINTS_0": 1,
                        "NORMAL": 2,
                        "POSITION": 3,
                        "TANGENT": 4,
                        "TEXCOORD_0": 5,
                        "WEIGHTS_0": 6
                    },
                    "indices": 0,
                    "mode": 4,
                    "material": 0
                }
            ]
        }
    ],
    "skins": [
        {
            "name": "handsShape",
            "inverseBindMatrices": 7,
            "joints": [
                0,
                12,
                14,
                16,
                18,
                20,
                2,
                4,
                6,
                8,
                10
            ]
        }
    ],
    "materials": [
        {
            "name": "lambert1",
            "pbrMetallicRoughness": {
                "baseColorFactor": [
                    0.4000000059604645,
                    0.4000000059604645,
                    0.4000000059604645,
                    1.0
                ],
                "metallicFactor": 0.0,
                "roughnessFactor": 1.0
            }
        }
    ],
    "accessors": [
        {
            "name": "handsShape#0/indices",
            "bufferView": 0,
            "byteOffset": 0,
            "componentType": 5125,
            "count": 11442,
            "max": [
                2209
            ],
            "min": [
                0
            ],
            "type": "SCALAR"
        },
        {
            "name": "handsShape#0/vertices/JOINTS_0",
            "bufferView": 1,
            "byteOffset": 0,
            "componentType": 5123,
            "count": 2210,
            "max": [
                9,
                9,
                8,
                0
            ],
            "min": [
                1,
                0,
                0,
                0
            ],
            "type": "VEC4"
        },
        {
            "name": "handsShape#0/vertices/NORMAL",
            "bufferView": 2,
            "byteOffset": 0,
            "componentType": 5126,
            "count": 2210,
            "max": [
                0.9990341067314148,
                0.9962445497512816,
                0.96804279088974
            ],
            "min": [
                -0.9990341067314148,
                -0.9995062947273254,
                -0.9996028542518616
            ],
            "type": "VEC3"
        },
        {
            "name": "handsShape#0/vertices/POSITION",
            "bufferView": 2,
            "byteOffset": 26520,
            "componentType": 5126,
            "count": 2210,
            "max": [
                0.133536234498024,
                0.05968381837010384,
                0.168102502822876
            ],
            "min": [
                -0.133536234498024,
                -0.05702566355466843,
                -0.0439029335975647
            ],
            "type": "VEC3"
        },
        {
            "name": "handsShape#0/vertices/TANGENT",
            "bufferView": 3,
            "byteOffset": 0,
            "componentType": 5126,
            "count": 2210,
            "max": [
                0.9987894296646118,
                0.993242621421814,
                0.993523895740509,
                1.0
            ],
            "min": [
                -0.9987895488739014,
                -0.9949368834495544,
                -0.9995488524436952,
                -1.0
            ],
            "type": "VEC4"
        },
        {
            "name": "handsShape#0/vertices/TEXCOORD_0",
            "bufferView": 1,
            "byteOffset": 17680,
            "componentType": 5126,
            "count": 2210,
            "max": [
                1.0,
                1.0
            ],
            "min": [
                0.0,
                0.24390047788619996
            ],
            "type": "VEC2"
        },
        {
            "name": "handsShape#0/vertices/WEIGHTS_0",
            "bufferView": 3,
            "byteOffset": 35360,
            "componentType": 5126,
            "count": 2210,
            "max": [
                1.0,
                0.5,
                0.18971002101898194,
                0.0
            ],
            "min": [
                0.5,
                0.0,
                0.0,
                0.0
            ],
            "type": "VEC4"
        },
        {
            "name": "handsShape/skin/IBM",
            "bufferView": 4,
            "byteOffset": 0,
            "componentType": 5126,
            "count": 11,
            "max": [
                0.7047765851020813,
                0.23469886183738709,
                0.998673975467682,
                0.0,
                0.36030253767967226,
                1.0,
                0.1707136332988739,
                0.0,
                0.9315985441207886,
                0.3598247766494751,
                0.6837886571884155,
                0.0,
                0.09684406965970992,
                0.03751097619533539,
                0.08595091104507446,
                1.0
            ],
            "min": [
                -1.0,
                -0.08574261516332627,
                0.0,
                0.0,
                -0.36030253767967226,
                -0.9819563031196594,
                -0.1707136183977127,
                0.0,
                -0.9315985441207886,
                -0.3598247766494751,
                -1.0,
                0.0,
                -0.09684410691261292,
                -0.03751097247004509,
                -0.08595088124275208,
                1.0
            ],
            "type": "MAT4"
        }
    ],
    "bufferViews": [
        {
            "name": "hands/data/indices-4",
            "buffer": 0,
            "byteOffset": 159824,
            "byteLength": 45768,
            "target": 34963
        },
        {
            "name": "hands/data/vertices-8",
            "buffer": 0,
            "byteOffset": 124464,
            "byteLength": 35360,
            "byteStride": 8,
            "target": 34962
        },
        {
            "name": "hands/data/vertices-12",
            "buffer": 0,
            "byteOffset": 71424,
            "byteLength": 53040,
            "byteStride": 12,
            "target": 34962
        },
        {
            "name": "hands/data/vertices-16",
            "buffer": 0,
            "byteOffset": 704,
            "byteLength": 70720,
            "byteStride": 16,
            "target": 34962
        },
        {
            "name": "hands/data/generic-64",
            "buffer": 0,
            "byteOffset": 0,
            "byteLength": 704
        }
    ],
    "buffers": [
        {
            "name": "hands/data",
            "byteLength": 205592,
            "uri": "hands0.bin"
        }
    ]
}
