{
	"asset":{
		"generator":"Khronos glTF Blender I/O v3.6.27",
		"version":"2.0"
	},
	"extensionsUsed":[
		"KHR_materials_specular",
		"KHR_materials_ior"
	],
	"scene":0,
	"scenes":[
		{
			"name":"Scene",
			"nodes":[
				3
			]
		}
	],
	"nodes":[
		{
			"mesh":0,
			"name":"tv_body"
		},
		{
			"mesh":1,
			"name":"tv_glass"
		},
		{
			"mesh":2,
			"name":"tv_screen"
		},
		{
			"children":[
				0,
				1,
				2
			],
			"name":"tv"
		}
	],
	"materials":[
		{
			"doubleSided":true,
			"extensions":{
				"KHR_materials_specular":{
					"specularColorFactor":[
						2.371357614441398,
						2.371357614441398,
						2.371357614441398
					]
				},
				"KHR_materials_ior":{
					"ior":1.4500000476837158
				}
			},
			"name":"lambert2.003",
			"pbrMetallicRoughness":{
				"baseColorFactor":[
					0.5,
					0.5,
					0.5,
					1
				],
				"roughnessFactor":0.5527864098548889
			}
		},
		{
			"doubleSided":true,
			"extensions":{
				"KHR_materials_specular":{
					"specularColorFactor":[
						2.371357614441398,
						2.371357614441398,
						2.371357614441398
					]
				},
				"KHR_materials_ior":{
					"ior":1.4500000476837158
				}
			},
			"name":"mat_screen.003",
			"pbrMetallicRoughness":{
				"metallicFactor":0.5,
				"roughnessFactor":0.5527864098548889
			}
		}
	],
	"meshes":[
		{
			"name":"Mesh.010",
			"primitives":[
				{
					"attributes":{
						"POSITION":0,
						"NORMAL":1,
						"TEXCOORD_0":2
					},
					"indices":3,
					"material":0
				}
			]
		},
		{
			"name":"Mesh.011",
			"primitives":[
				{
					"attributes":{
						"POSITION":4,
						"NORMAL":5,
						"TEXCOORD_0":6
					},
					"indices":7,
					"material":1
				}
			]
		},
		{
			"name":"Mesh.009",
			"primitives":[
				{
					"attributes":{
						"POSITION":8,
						"NORMAL":9,
						"TEXCOORD_0":10
					},
					"indices":7,
					"material":1
				}
			]
		}
	],
	"accessors":[
		{
			"bufferView":0,
			"componentType":5126,
			"count":1397,
			"max":[
				0.21399998664855957,
				0.29990461468696594,
				0.1750146448612213
			],
			"min":[
				-0.21399998664855957,
				-2.369639373611676e-09,
				-0.18491524457931519
			],
			"type":"VEC3"
		},
		{
			"bufferView":1,
			"componentType":5126,
			"count":1397,
			"type":"VEC3"
		},
		{
			"bufferView":2,
			"componentType":5126,
			"count":1397,
			"type":"VEC2"
		},
		{
			"bufferView":3,
			"componentType":5123,
			"count":4974,
			"type":"SCALAR"
		},
		{
			"bufferView":4,
			"componentType":5126,
			"count":89,
			"max":[
				0.09252283722162247,
				0.2614642083644867,
				0.13898107409477234
			],
			"min":[
				-0.18094182014465332,
				0.06017168611288071,
				0.11988597363233566
			],
			"type":"VEC3"
		},
		{
			"bufferView":5,
			"componentType":5126,
			"count":89,
			"type":"VEC3"
		},
		{
			"bufferView":6,
			"componentType":5126,
			"count":89,
			"type":"VEC2"
		},
		{
			"bufferView":7,
			"componentType":5123,
			"count":408,
			"type":"SCALAR"
		},
		{
			"bufferView":8,
			"componentType":5126,
			"count":89,
			"max":[
				0.09252283722162247,
				0.2614642083644867,
				0.1380121111869812
			],
			"min":[
				-0.18094182014465332,
				0.06017168611288071,
				0.11891704052686691
			],
			"type":"VEC3"
		},
		{
			"bufferView":9,
			"componentType":5126,
			"count":89,
			"type":"VEC3"
		},
		{
			"bufferView":10,
			"componentType":5126,
			"count":89,
			"type":"VEC2"
		}
	],
	"bufferViews":[
		{
			"buffer":0,
			"byteLength":16764,
			"byteOffset":0,
			"target":34962
		},
		{
			"buffer":0,
			"byteLength":16764,
			"byteOffset":16764,
			"target":34962
		},
		{
			"buffer":0,
			"byteLength":11176,
			"byteOffset":33528,
			"target":34962
		},
		{
			"buffer":0,
			"byteLength":9948,
			"byteOffset":44704,
			"target":34963
		},
		{
			"buffer":0,
			"byteLength":1068,
			"byteOffset":54652,
			"target":34962
		},
		{
			"buffer":0,
			"byteLength":1068,
			"byteOffset":55720,
			"target":34962
		},
		{
			"buffer":0,
			"byteLength":712,
			"byteOffset":56788,
			"target":34962
		},
		{
			"buffer":0,
			"byteLength":816,
			"byteOffset":57500,
			"target":34963
		},
		{
			"buffer":0,
			"byteLength":1068,
			"byteOffset":58316,
			"target":34962
		},
		{
			"buffer":0,
			"byteLength":1068,
			"byteOffset":59384,
			"target":34962
		},
		{
			"buffer":0,
			"byteLength":712,
			"byteOffset":60452,
			"target":34962
		}
	],
	"buffers":[
		{
			"byteLength":61164,
			"uri":"tv.bin"
		}
	]
}
